<svg id="Calque_1" data-name="Calque 1" xmlns="http://www.w3.org/2000/svg" viewBox="0 0 294.01 154.5"><defs><style>.cls-1{fill:#00aeef;fill-rule:evenodd;}</style></defs><title>logo</title><path class="cls-1" d="M13.12,19.5h0a2.25,2.25,0,0,0,.82.09l.29,0h0a8,8,0,0,0,1.17-.38h0A26.73,26.73,0,0,0,18.07,18h0a3,3,0,0,0,.66-.45h0a.94.94,0,0,0,.28-.41h0a.67.67,0,0,0,0-.28.4.4,0,0,0,0-.15h0a3.19,3.19,0,0,0-.68-1.2h0a1.13,1.13,0,0,0-.3-.24h0a.92.92,0,0,0-.23-.09h0c-.33-.09-.67-.17-1-.24h0a21.9,21.9,0,0,1-2.68-.68h0a1.63,1.63,0,0,1-.38-.17h0a.63.63,0,0,1-.28-.44.5.5,0,0,1,0-.24h0a2.06,2.06,0,0,1,.34-.59h0a6.2,6.2,0,0,1,1.65-1.3h0a11.05,11.05,0,0,1,2.49-1l.49,1.44.4-.11.22-2.89h0a2.06,2.06,0,0,1-1.18-.67h0a2,2,0,0,1-.39-.7h0a1.51,1.51,0,0,0-.09-.18h0a.27.27,0,0,0-.09-.12h0a.3.3,0,0,0-.15,0H17a5.48,5.48,0,0,0-1.21.29h0a10.89,10.89,0,0,0-4.56,3.12h0a4,4,0,0,0-1,2.78h0s0,.09,0,.14a2.65,2.65,0,0,0,.51,1.31h0a3.1,3.1,0,0,0,1.32.91h0a10.61,10.61,0,0,0,2.24.54h0c.56.09,1.13.16,1.7.21h0a14.84,14.84,0,0,1-2.71,1.57h0a4.14,4.14,0,0,1-1.25.34h0a2.57,2.57,0,0,1-.68-.06l-.11.26h0a5.77,5.77,0,0,0,1.85.89"/><path class="cls-1" d="M23.05,8,22,8.67h0A11.5,11.5,0,0,1,21.66,10h0a34.1,34.1,0,0,0-.93,3.71l-1.26.2h0l-.13,0h0l-.06,0h0a.09.09,0,0,0,0,.06h0v.08h0a1.59,1.59,0,0,0,.2.55h0a1.29,1.29,0,0,0,.22.3h0a1.71,1.71,0,0,0,.42.61h0l.24.24h0c-.25,1.08-.44,2.17-.59,3.26h0a1.48,1.48,0,0,0,0,.21v0h0l0,0h0l.06,0h0a.51.51,0,0,0,.17,0h.16a.91.91,0,0,0,.23,0h.16l.14-.5h0a.16.16,0,0,0,.1,0h0a.23.23,0,0,0,.07-.1h0a1.48,1.48,0,0,0,.13-.35h0A23.21,23.21,0,0,1,21.66,16l.13-.35h0c1.16-.1,2.33-.23,3.49-.36h0l.09.72a15,15,0,0,1,.05,2.22l0,.28v0h.09l.1,0,.28-.13.28-.13.06-.7,1.58-1L28,14.83h0a2.91,2.91,0,0,0,.65-.75h.09a.3.3,0,0,0,.15-.07h0a.49.49,0,0,0,.14-.18h0a1.86,1.86,0,0,0,.15-.56h0a4.88,4.88,0,0,0,0-1.08v-.06h0a.19.19,0,0,0,0-.07h0l0,0h0l0,0H29l-.21,0-.56.08h0c0-.86-.08-1.71-.15-2.57h0c0-.07,0-.15,0-.22A17.93,17.93,0,0,0,27.65,7h0c0-.09,0-.18-.09-.27h0a.42.42,0,0,0-.08-.12h0a1.8,1.8,0,0,0-.19-.2h0a.26.26,0,0,0-.15-.07H27l-.57.07h0l-.09-.13h0a.27.27,0,0,0-.08-.07h0l-.12,0h-.19a7.74,7.74,0,0,0-2.14.48h0l-.17.08,0,0h0l0,.11h0c.07.21.12.42.17.64h0c-.25.13-.51.28-.75.43m1.25.59h0a21.79,21.79,0,0,1,.81,4.06v0l-2.66.62h0q.86-2.37,1.85-4.7"/><path class="cls-1" d="M31.52,7.9h0A22.65,22.65,0,0,0,31,15.42c0,.08,0,.17,0,.25h0c0,.16,0,.32,0,.48a1.8,1.8,0,0,1,0,.22h0a2.29,2.29,0,0,0,.08.28h0a.43.43,0,0,0,.22.22h0a8.83,8.83,0,0,0,1,.45h0a2,2,0,0,0,.37.09h0a.16.16,0,0,0,.07,0h.06l0,0,0,0h0a2.76,2.76,0,0,0,.08-.27h0A14.2,14.2,0,0,0,33.21,15V14.9h0a16.91,16.91,0,0,0,5.95,2.27h0A4,4,0,0,1,41,15.93h0a4,4,0,0,1,.49-.17l0-.42h0A18.71,18.71,0,0,1,34,11.63h0c.83,0,1.66,0,2.49-.11,1.18-.08,2.35-.22,3.52-.41h0a6.38,6.38,0,0,0,.72-.19h0A.87.87,0,0,0,41,10.7h0a.71.71,0,0,0,.18-.38h0a2.41,2.41,0,0,0,0-.38c0-.09,0-.17,0-.25h0a19.55,19.55,0,0,0-.85-2.55h0a10.25,10.25,0,0,0-2.89-.91h0a27.53,27.53,0,0,0-4.05-.42h0a8.63,8.63,0,0,1-1.94.56h0q-.51.11-1,.18l-.12,1.1h0a7.25,7.25,0,0,1,1.23.25m2.6.65h0a19,19,0,0,1,3.45.38h0a5.36,5.36,0,0,1,1.57.62h0a10.94,10.94,0,0,1-2.45.92h0a22.5,22.5,0,0,1-2.94.59l.37-2.51"/><path class="cls-1" d="M42.2,15.7h0a2.16,2.16,0,0,0,.79,1h0a2.23,2.23,0,0,0,1.32.33h.07a6,6,0,0,0,1.46-.3h0a13.15,13.15,0,0,0,3.54-1.81h0c0-.35.09-.7.16-1h0a1,1,0,0,0,0-.17v0h0l-.07,0h0l-.17.07h0a5.91,5.91,0,0,1-1.24.52h0a6.3,6.3,0,0,1-1.31.23c-.23,0-.45,0-.68,0h0a2.33,2.33,0,0,1-.46-.08h0a4.52,4.52,0,0,1-.23-1c0-.15,0-.31,0-.46h0a14.24,14.24,0,0,1,.8-4.7h0c.23-.71.47-1.42.73-2.12L47.15,6h0a2,2,0,0,0,0-.23c0-.13,0-.25,0-.38h0A.67.67,0,0,0,47,5.19h0A.24.24,0,0,0,47,5.1h0a.14.14,0,0,0-.11,0h0a.41.41,0,0,0-.16,0H46.5c-.2,0-.41,0-.62.08h0a9.66,9.66,0,0,0-1.07.22l-.1.35L44,5.88h0l-.1,0h0l-.05,0h0a.08.08,0,0,0,0,0l0,.09h0L41.4,12.89h0l-.06.2h0v0h0l0,0h0a.18.18,0,0,0,.07,0l.45.27h0a4.8,4.8,0,0,0,.31,2.24"/><path class="cls-1" d="M17.17,28.92h0a25.37,25.37,0,0,0-10,7.91h0a2.17,2.17,0,0,0-.36.94h0a8.27,8.27,0,0,0,0,1.86.41.41,0,0,0,0,.11h0c0,.22,0,.45.06.68a22.35,22.35,0,0,0,3.39,9.72h0a7,7,0,0,0,1.32,1.56h0a4,4,0,0,0,.34.23h0a2.46,2.46,0,0,0,.48.16h0a10,10,0,0,0,1.73.16h0c1.35,0,2.71,0,4.06-.14a49.89,49.89,0,0,0,10.68-2h0a23.8,23.8,0,0,0,3.33-1.38L32,45.32h0a13.65,13.65,0,0,0,3.78-2.09h0a6,6,0,0,0,1-1l.14-2.61h0a.33.33,0,0,0,0-.14s0,0,0-.08l0-.06h0a.07.07,0,0,0-.06,0h0a.16.16,0,0,0-.1,0h0l-.24,0-3,.74h0A75.74,75.74,0,0,1,22,41.72q-2.9.21-5.79.21h0a16.63,16.63,0,0,1-3.79-.51h0a6.4,6.4,0,0,1,1.28-2.55h0a20.26,20.26,0,0,1,5.15-4.44h0A55.78,55.78,0,0,1,34.1,28.07h0a31.12,31.12,0,0,0,1-4.23h0a5.42,5.42,0,0,0,.05-1.45c0-.1,0-.2,0-.3h0V22a11.07,11.07,0,0,0-.28-1.61h0a3.25,3.25,0,0,0-.23-.54h0a.8.8,0,0,0-.22-.23h0a.55.55,0,0,0-.35-.1h-.21l-.34,0h0A30.76,30.76,0,0,0,25.25,22h0A117.14,117.14,0,0,0,11.3,29.2h0c2-.08,3.91-.17,5.87-.28"/><path class="cls-1" d="M38.91,28.25h0c1.08,0,2.16.06,3.23.14h0A50.13,50.13,0,0,0,39,38.63h0a10,10,0,0,0-.11,2.84,9.09,9.09,0,0,0,.21,1.27h0a8.54,8.54,0,0,0,3.25,4.62h0A22,22,0,0,0,49,50.83h0a10,10,0,0,0,2.61.44h0l.39,0a7.34,7.34,0,0,0,3.38-1.09h0a13.12,13.12,0,0,0,3.86-3.7h0a28.38,28.38,0,0,0,5.79-16.57h0c0-.42,0-.85-.07-1.28a14,14,0,0,0-.81-3.47h0a7.39,7.39,0,0,0-4.7-4.3h0a20.72,20.72,0,0,0-5.26-1h0a73.83,73.83,0,0,0-9.17,0L44,22.19h0c-.92.13-1.84.28-2.76.43l-2.34,5.63m17.45,2.23h0a8.73,8.73,0,0,1,2.51,1.42h0a3.1,3.1,0,0,1,1,1.57h0a1,1,0,0,1,0,.24,1.67,1.67,0,0,1,0,.59h0a8.66,8.66,0,0,1-1,2.24h0a22.48,22.48,0,0,1-8.17,8.06h0a15.46,15.46,0,0,1-2.88,1.19h0c-.09-.62-.18-1.25-.29-1.87h0c0-.14,0-.29-.05-.44a16.49,16.49,0,0,1,.05-3.65h0a68.36,68.36,0,0,1,2.17-10.74h0a26,26,0,0,1,6.6,1.39"/><path class="cls-1" d="M84.51,25.37h0a2.82,2.82,0,0,1,.87,1.49h0a4.22,4.22,0,0,1,.1.62,4.7,4.7,0,0,1,0,.75h0a9.78,9.78,0,0,1-2.19,5.71h0A29,29,0,0,1,76,40.31h0c-1,.64-2,1.26-3,1.85h0a89.32,89.32,0,0,0,4.27-15.65h0a25.64,25.64,0,0,0,.27-3h0a59.23,59.23,0,0,1,7,1.89M66.76,45.86h0a1.46,1.46,0,0,0-.24.17l0,.08v.1l.08.1h0a3.9,3.9,0,0,0,.51.4h0q2.7,1.8,5.5,3.46h0A31.55,31.55,0,0,0,89.91,40.08h0a27,27,0,0,0,3.61-5.77h0c0-.87,0-1.73-.1-2.59h0A11.06,11.06,0,0,0,88.55,24h0a32.48,32.48,0,0,0-8.89-4.28h0q-4-1.32-8.18-2.25l-.26.49h0a48,48,0,0,0-4.8-.8h0l-.48,0h0a.18.18,0,0,0-.09,0h0a.65.65,0,0,0-.13.16h0a2.7,2.7,0,0,0-.35.7h0a5.5,5.5,0,0,0-.38,1.6v.19h0a.29.29,0,0,0,0,.13h0a1.19,1.19,0,0,0,.16.23h0a10,10,0,0,0,1.06,1h0q1.71,1.41,3.49,2.76h0a187.23,187.23,0,0,0-1.55,21h0c-.46.32-.92.63-1.39.93"/><path class="cls-1" d="M98,31.18h0a62.29,62.29,0,0,0-1,10.1h0c0,.23,0,.47,0,.71a7.83,7.83,0,0,0,1.45,3.77h0a5.59,5.59,0,0,0,2.8,2h0a4,4,0,0,0,1.47.17H103q1.85-12.15,4.85-24.1h0a10.65,10.65,0,0,0,.22-1.47h0a1,1,0,0,0,0-.24s0-.05,0-.08h0a5.09,5.09,0,0,0-.36-1h0A19.55,19.55,0,0,0,104.23,16h0a1.51,1.51,0,0,0-.43-.32h0a1.31,1.31,0,0,0-.56-.12h0a4.3,4.3,0,0,0-.62,0h-.2l-.36,0-1.06.09h0a2.26,2.26,0,0,0-.63.17h0a1.3,1.3,0,0,0-.46.38h0a5.06,5.06,0,0,0-.43.7h0a40.58,40.58,0,0,0-4.16,9.61L98,31.18"/><path class="cls-1" d="M114.3,46.43h0a4,4,0,0,0,.67.39h0a.7.7,0,0,0,.19.06h.22a1.26,1.26,0,0,0,.44-.14h0a.72.72,0,0,0,.32-.37h0a1.73,1.73,0,0,0,.12-.46h0q1-5.85,2.4-11.64h0a52.71,52.71,0,0,0,1.08-6.81h0A56.76,56.76,0,0,0,126,41.06h0a15.33,15.33,0,0,0,2.26,2.72h0a3.82,3.82,0,0,0,1.28.79h0c.81.32,1.62.63,2.43.92h0a2.14,2.14,0,0,0,.35.06h0a1.67,1.67,0,0,0,.32,0h0l.24-.08h0a3.15,3.15,0,0,0,1.14-.81h0a7.34,7.34,0,0,0,1.1-1.73h0A27.68,27.68,0,0,0,137,37.18h0a146.3,146.3,0,0,0,2.49-24.32l-.64-.15h0a25.3,25.3,0,0,0-2.61,3.46h0a56.51,56.51,0,0,1-3.61,18.43h0A24.26,24.26,0,0,1,131.51,37h0a65.7,65.7,0,0,1-5.79-16.4l-3.12-1.88.43-2.26v-.08h0a1.4,1.4,0,0,0,0-.29h0l0-.06h0a.66.66,0,0,0-.22-.22h0a1.57,1.57,0,0,0-.55-.23h0a14.29,14.29,0,0,0-2.26-.42h0c-1.54-.19-3.08-.34-4.63-.44l-2.45,1.39h0a106.68,106.68,0,0,0-2.29,27.19h0a28,28,0,0,0,3.68,3.17"/><path class="cls-1" d="M150.31,15.56l-2.87,1.76h0a30.46,30.46,0,0,1-.95,3.52h0A87.69,87.69,0,0,0,144,31l-3.46.56h0a2.54,2.54,0,0,0-.37.1h0a.48.48,0,0,0-.16.12h0a.2.2,0,0,0-.07.16h0a.38.38,0,0,0,0,.15.09.09,0,0,0,0,.05h0a4.14,4.14,0,0,0,.57,1.52h0a4.6,4.6,0,0,0,.58.83h0a5.05,5.05,0,0,0,1.17,1.68h0c.21.22.43.43.66.64h0c-.68,3-1.23,5.95-1.63,9h0a5.49,5.49,0,0,0,0,.58v.07h0a.27.27,0,0,0,.07.08h0a.49.49,0,0,0,.17.06h0a1.59,1.59,0,0,0,.48.07h.44c.2,0,.41,0,.61-.08l.44,0,.38-1.35H144a.53.53,0,0,0,.27-.13h0a1.08,1.08,0,0,0,.2-.29h0a4.78,4.78,0,0,0,.33-.94h0q.72-3.15,1.74-6.23l.35-1h0q4.8-.43,9.58-1h0c.1.65.18,1.31.25,2a41.44,41.44,0,0,1,.15,6.1l-.08.76v.07H157l.26-.1.78-.37.76-.35.17-1.92L163.28,39l.49-4.72h0a7.87,7.87,0,0,0,1.78-2.05l.25,0h0a.88.88,0,0,0,.42-.18h0a1.7,1.7,0,0,0,.38-.51h0A5,5,0,0,0,167,30h0a13.5,13.5,0,0,0,0-3s0-.1,0-.15h0a.66.66,0,0,0-.06-.2h0a.31.31,0,0,0-.05-.1h0a.38.38,0,0,0-.13-.06h-.23l-.59.07-1.53.23h0q-.13-3.53-.41-7h0l-.06-.62a49.39,49.39,0,0,0-1-6.27h0a6.28,6.28,0,0,0-.25-.73h0a1.08,1.08,0,0,0-.22-.35h0q-.24-.27-.51-.54h0a.84.84,0,0,0-.43-.19h-.41l-1.56.2h0a3.9,3.9,0,0,0-.25-.36h0a.62.62,0,0,0-.22-.17h0a1.08,1.08,0,0,0-.31-.07h0l-.33,0-.2,0h0a21.7,21.7,0,0,0-5.88,1.3h0a4,4,0,0,0-.47.22l-.08.05v0h0v0l.1.3h0c.18.57.34,1.16.47,1.75h0c-.7.37-1.39.76-2.06,1.19m3.42,1.61h0A59.45,59.45,0,0,1,156,28.33v0l-7.29,1.7h0q2.35-6.51,5.07-12.89"/><path class="cls-1" d="M181.27,30.73h0a13.27,13.27,0,0,0-1.71,2.2h0a3.7,3.7,0,0,0-.54,1.93h0c0,.1,0,.19,0,.28a6.39,6.39,0,0,0,4.51,5.27h0a14,14,0,0,0,5.5.69c.24,0,.49,0,.74-.08h0a30.16,30.16,0,0,0,5.35-1.35h0a63.76,63.76,0,0,0,5.94-2.35h0a37.36,37.36,0,0,0,7.18,3.44l.49-.88,1.81.61.52-1.1h0a22.88,22.88,0,0,1-6.06-4h0a33.47,33.47,0,0,0,4-2.42l-1.86-2h0A14.8,14.8,0,0,1,203,33.09h0a34,34,0,0,1-6.75-9h0a33.6,33.6,0,0,0,3.76-4.53h0a6.89,6.89,0,0,0,1-2.37h0a4.54,4.54,0,0,0,0-1.22,4.47,4.47,0,0,0-.34-1.35h0a12.88,12.88,0,0,0-3.05-4.39h0a9.91,9.91,0,0,0-.88-.83h0A3,3,0,0,0,195,8.69h0l-.22,0c-.22,0-.43,0-.65.06h0a24.16,24.16,0,0,0-9.4,3.5h0a6.38,6.38,0,0,0-1.7,1.61h0a3.5,3.5,0,0,0-.56,2.28s0,.08,0,.12h0a8,8,0,0,0,1,3h0A55.91,55.91,0,0,0,187,24.59l.1.14h0q-2.91,3-5.87,6m10.08-15.91h0a1.37,1.37,0,0,1-.07-.29v-.06h0a1.92,1.92,0,0,1,.45-1.18h0a4.32,4.32,0,0,1,2.64-1.52h0l.14,0a1.6,1.6,0,0,1,1.76,1.33.74.74,0,0,1,0,.21h0a5.09,5.09,0,0,1-.36,1.54h0a19.08,19.08,0,0,1-2.64,4.35l-.18.24h0c-.61-1.52-1.18-3.05-1.73-4.6m1.93,21h-.15a18,18,0,0,1-5.8-.5h0a9.47,9.47,0,0,1-1.46-.54L191,29.64h0a20.44,20.44,0,0,0,6.21,5.57h0a15.76,15.76,0,0,1-3.21.57l-.71,0"/><path class="cls-1" d="M224.68,38.46h0q1.44-3.63,2.54-7.36h0a52.4,52.4,0,0,1,14.32-4.9h0c.11-.57.23-1.13.37-1.69h0a4.71,4.71,0,0,0,.1-.92h0s0-.06,0-.09a1.21,1.21,0,0,0-.27-.64h0a1.51,1.51,0,0,0-.66-.41h0a5.5,5.5,0,0,0-1.5-.32h0a32.45,32.45,0,0,0-4.41,0l-.26,0h0l-.76.05a44.38,44.38,0,0,0-5.26.74h0c.6-2.61,1.13-5.24,1.59-7.87h0a20.36,20.36,0,0,1,7-1.83c.46,0,.91-.06,1.37-.06H239a11.68,11.68,0,0,1,.41,2.12c0,.33.05.67.05,1h0c0,.46,0,.91,0,1.37l.72.18h0A16.37,16.37,0,0,0,242.88,11h0a6.83,6.83,0,0,0,0-1.69q0-.33-.09-.66h0a3.18,3.18,0,0,0-1.19-1.91h0a4.82,4.82,0,0,0-2-.84h0a15.46,15.46,0,0,0-3.78-.19h0l-.54,0a26.31,26.31,0,0,0-5.8,1.1l-.37-.9h0a.72.72,0,0,0-.19-.24h0a.77.77,0,0,0-.34-.16h0a3.25,3.25,0,0,0-.7,0h-.14l-.32,0h0l-.38.17h0A8.43,8.43,0,0,0,224.31,8h0a3.16,3.16,0,0,0-.53,1l-4.67,1.86-.18,2.27,1.53,1.81h0c.25,7.6.12,15.21-.39,22.79h0a1.87,1.87,0,0,0,0,.41v0l0,.06h0a.33.33,0,0,0,.22.11h1.19l.56-1,.45,0,.15,4.14,1,.16h0a19.88,19.88,0,0,1,1-3.17"/><path class="cls-1" d="M249.19,10.19h0a4.85,4.85,0,0,0-1.4.8h0a2.13,2.13,0,0,0-.26.26l-3.16,4,3.89,1.92h0q3-2.71,5.84-5.64L252.6,9h0c-1.16.35-2.29.73-3.41,1.16M253,35.11h0a101.49,101.49,0,0,1,.89-14.47h0a2.17,2.17,0,0,0,0-.36h0v0a1.16,1.16,0,0,0-.12-.44h0a.39.39,0,0,0-.08-.1l-1-1-.15-.15-.07-.06-.05,0h0l-.12,0h0a4.14,4.14,0,0,0-.49.19h0a17.84,17.84,0,0,0-8.47,7.71h0c-.21.35-.39.71-.56,1.07l0,.06h0v0l0,.17h0a.86.86,0,0,0,0,.16.31.31,0,0,0,0,.1l.3,2.69,2.49-.09h0c.37,1,.77,1.93,1.21,2.88h0a3.77,3.77,0,0,0,.69,1h0a2,2,0,0,0,.85.53l3.44,1.1,1.34-1"/><path class="cls-1" d="M283,29.71h0a9.8,9.8,0,0,0,1.7-2.77h0a3.37,3.37,0,0,0,.21-1.26h0v-.06a1.61,1.61,0,0,0-.31-.78h0a4.86,4.86,0,0,0-1.17-1.09h0a17.51,17.51,0,0,0-4-1.93h0c-.37-.14-.75-.27-1.13-.39h0A21,21,0,0,1,284.23,16l.59-.38h0a9,9,0,0,0-2.89-1.9h0A23.75,23.75,0,0,0,270.81,21h0a23.82,23.82,0,0,0,1.46,6h0a5.13,5.13,0,0,0,.41.81h0a1.81,1.81,0,0,0,.75.61h0a5.76,5.76,0,0,0,1.22.38h0c1.16.22,2.31.42,3.47.62h0a7.39,7.39,0,0,1-2.1,3l-.94.84-.05.06h0a.12.12,0,0,0,0,.08v.09l0,.29.18,1.88h0a27.08,27.08,0,0,0,7.77-6"/><path class="cls-1" d="M258.52,32.38h0a5.42,5.42,0,0,0,1.56,2.4h0a3.81,3.81,0,0,0,2.56.83h.14a9.61,9.61,0,0,0,2.8-.66h0a22.94,22.94,0,0,0,6.75-4.2h0c.07-.83.17-1.65.28-2.48h0a2.55,2.55,0,0,0,0-.39v-.12h-.06a.27.27,0,0,0-.12,0h0a2.68,2.68,0,0,0-.33.18h0a10.63,10.63,0,0,1-2.36,1.18h0a10.36,10.36,0,0,1-2.52.52,9.69,9.69,0,0,1-1.32,0h0a3.36,3.36,0,0,1-.88-.18h0a12.79,12.79,0,0,1-.48-2.45,10,10,0,0,1-.06-1.1h0a40.39,40.39,0,0,1,1.38-11.09h0q.61-2.52,1.32-5l.55-.29h0c0-.18,0-.36-.05-.55s-.06-.61-.1-.91h0a2.16,2.16,0,0,0-.1-.44h0a.57.57,0,0,0-.11-.22h0a.42.42,0,0,0-.22-.13h0a1.1,1.1,0,0,0-.31,0h0l-.4,0a11.74,11.74,0,0,0-1.19.16h0a16.42,16.42,0,0,0-2.07.5l-.18.81-1.31.45h0a.72.72,0,0,0-.2.09h0a.22.22,0,0,0-.09.07h0a.13.13,0,0,0,0,.09l0,.19h0l-4.43,16.06h0a3.94,3.94,0,0,0-.1.47h0v0h0a.19.19,0,0,0,0,.09h0a.75.75,0,0,0,.14.12l.88.64h0a13.38,13.38,0,0,0,0,2.28,14.41,14.41,0,0,0,.63,3"/><path class="cls-1" d="M289,25.47V27.3l-13.3,13.77-.22,6.65L271,48,247.59,74l-.89-1.23,23.17-26.57.56-5.3h0a0,0,0,0,0,0,0h0l0,0h0l.09,0h0l.15,0h0l.41-.07h0l.53,0h0l.6,0h0l2-.06h.1l14.49-15.25.15.14m-14.4,16.58-2.89.06v.12h0c-.09.75-.17,1.5-.26,2.25h0c0,.45-.09.89-.14,1.33h0c0,.16,0,.33,0,.49h0c0,.1,0,.2,0,.3h0v0h0v0h0l.1,0h.24l.76,0h0l1.7,0h.38a.09.09,0,0,0,0-.05h0a.66.66,0,0,1,0-.14h0c0-.16,0-.32,0-.48l0-1.48h0c0-.48,0-1,.05-1.43h0c0-.33,0-.65.05-1"/><path class="cls-1" d="M285.91,51.65l-34.76,37.2h0l-.45.44h0c-.14.15-.28.3-.41.46h0c-.14.16-.26.32-.39.48h0l-.36.5h0c-.23.34-.44.69-.63,1h0c-.2.36-.37.73-.53,1.1h0c-.14.33-.26.66-.37,1h0a9.83,9.83,0,0,0-.3,1h0c-.09.35-.17.69-.23,1h0c-.07.36-.12.71-.16,1.06h0c0,.36-.08.71-.1,1.07h0c0,.36,0,.71,0,1.07v.06h0c0,.34,0,.67,0,1h0c0,.35,0,.7.08,1L251.6,106l2.45-2,12.62.23h0c.25,0,.49,0,.73,0h0c.24,0,.47.06.7.11h0c.23,0,.45.11.67.18h0c.22.07.43.15.64.24h0l.6.29h0c.2.11.39.23.58.35h0c.19.13.37.26.54.4h0c.18.15.35.29.52.45h0a8.27,8.27,0,0,1,.71.74h0c.23.27.44.54.65.83h0c.2.29.4.59.58.9h0c.18.31.36.63.52,1h0c.16.33.31.66.45,1h0c.14.34.27.69.4,1h0c.12.36.23.71.33,1.07h0c.1.36.19.73.27,1.09h0c.11.51.21,1,.3,1.55h0c0,.21.08.43.11.64h0l.12.59h0a9,9,0,0,0,.24.89h0c.1.3.22.6.35.89h0a4.48,4.48,0,0,1,.32.44h0c.1.15.19.29.27.44h0c.08.15.15.29.22.44h0l.18.43h0a6.74,6.74,0,0,1,.24.88h0c.06.3.11.6.14.9h0c0,.39.07.79.09,1.18h0c0,.43.05.86.07,1.29l.21,2.49h0c.07.81.14,1.63.2,2.44h0q.09,1.17.15,2.34h0c.05.77.08,1.55.1,2.33h0c.05.55.09,1.11.1,1.66h0c0,.23,0,.46,0,.69h0c0,.31,0,.62,0,.94h0c0,.52-.06,1.05-.11,1.58h0c-.05.52-.11,1-.19,1.56h0q-.12.76-.27,1.53h0c-.1.51-.21,1-.33,1.51h0q-.18.75-.39,1.5h0c-.14.49-.28,1-.43,1.48h0c-.21.7-.43,1.4-.66,2.09h0c-.23.7-.47,1.4-.71,2.09l-.89-.24.44-2.33.22-1.16h0c.06-.34.13-.69.18-1h0c.06-.31.1-.61.14-.92h0a8,8,0,0,0,.08-.84h0a4.87,4.87,0,0,0,0-.54h0v-.33h0q0-.42-.09-.84h0a8.59,8.59,0,0,0-.21-.84h0c-.1-.29-.21-.58-.34-.87h0A8.11,8.11,0,0,0,275,140h0c-.18-.33-.38-.66-.59-1l-1-1.48-5.79,4.18-.89-1,1-1.39h0c.16-.23.31-.46.45-.71h0c.13-.22.25-.46.37-.7h0c.11-.23.21-.46.3-.7h0c.09-.23.17-.47.24-.7h0c.07-.24.13-.47.18-.71h0c0-.24.09-.48.13-.72h0c0-.24.06-.49.08-.73h0c0-.25,0-.5,0-.75h0c0-.18,0-.37,0-.55h0c0-.13,0-.26,0-.39h0c0-.33,0-.65,0-1h0c0-.34-.05-.68-.07-1h0l-.09-1.06h0l-.3-.83h0c-.17-.48-.36-1-.56-1.43h0c-.1-.24-.21-.47-.32-.71h0c-.11-.23-.23-.45-.35-.68h0c-.12-.22-.25-.43-.38-.64h0a6.42,6.42,0,0,0-.42-.6h0a5.85,5.85,0,0,0-.45-.54h0a5.56,5.56,0,0,0-.5-.47h0a4.67,4.67,0,0,0-.58-.41h0a4.63,4.63,0,0,0-.64-.29h0l-.34-.11h0c-.11,0-.23,0-.35-.06h0l-.37,0h-.39l-.4.16h0c-.15.06-.3.1-.45.15h0c-.33.09-.67.17-1,.24h0c-.37.07-.73.13-1.1.18h0l-1.14.16h0l-1.47.2h0l-.69.11h0c-.21,0-.43.07-.64.12h0l-.59.14h0a5.17,5.17,0,0,0-.51.18h0a2.67,2.67,0,0,0-.42.2h0a2.43,2.43,0,0,0-.32.24h0a1,1,0,0,0-.17.23h0a1.06,1.06,0,0,0-.09.25l1.64,1.82,2.23,3v.06h0c0,.41-.09.83-.12,1.25h0c0,.24-.05.49-.07.73h0l0,.42h0l0,.11h0a2.14,2.14,0,0,1-.1.22h0c-.1.24-.22.49-.33.73h0c-.35.74-.7,1.47-1.06,2.2h0c-.65,1.31-1.3,2.63-2,3.94h0l-.16.34-.34.71-.67,1.42-1.35,2.85-2.69,5.68h0l-.05,0h0c-.31.07-.62.13-.93.17h0l-.3,0h-.27l-.23,0h0a.32.32,0,0,1-.09,0h0l-.07,0h0l-.05-.06h0a.19.19,0,0,1,0-.08h0l0-.19h0c0-.11-.05-.22-.08-.33h0c-.08-.31-.16-.63-.25-.94h0c-.23-.78-.46-1.56-.71-2.34l-.49-1.61h0c-.15-.45-.29-.91-.44-1.36l-.8-2.41-1.38-4.16,0-.14h0a1.22,1.22,0,0,0-.07-.17l-.29-.71L242.2,135,241,132.14l-2.35-5.71.06,0h0c.4-.12.8-.25,1.19-.4h0l.36-.13h0l.3-.14h0l.22-.13h0a.2.2,0,0,0,.07-.06h0a.1.1,0,0,0,0,0h0a.05.05,0,0,0,0,0h0a.14.14,0,0,1,0-.06h0a0,0,0,0,1,0,0h0a.5.5,0,0,1,.08-.12h0l.16-.12h0a4.25,4.25,0,0,1,.46-.27h0l.83-.38h0l0,0,.23-1.47-.67-2.22-6,.5-4.45,6.15-1.34,4.67-1.34.25-1.11-4.68-1.89.12h0c-.27.1-.53.2-.79.32h0c-.26.11-.52.24-.77.37h0c-.24.13-.49.27-.73.42h0c-.24.15-.47.3-.7.47h0c-.23.16-.46.33-.67.51h0l-.65.56h0c-.21.19-.41.39-.61.6h0c-.2.21-.39.42-.58.64h0c-.16.19-.33.39-.48.59h0c-.16.21-.31.41-.46.63h0c-.15.21-.3.43-.44.65h0c-.14.22-.28.44-.41.67h0c-.27.47-.52.94-.75,1.42h0c-.23.5-.45,1-.65,1.52h0c-.2.52-.38,1-.55,1.58h0c-.16.55-.31,1.1-.44,1.66h0c-.14.56-.25,1.13-.35,1.71h0c-.09.58-.18,1.16-.24,1.75l-.54,3.49-.89.25h0c-.2-.46-.39-.92-.58-1.38h0l-.76-2h0c-.25-.62-.51-1.24-.77-1.86h0c-.28-.65-.58-1.3-.89-1.94h0l-.49-1h0c-.17-.31-.34-.62-.52-.93h0c-.18-.31-.37-.61-.57-.92h0c-.2-.3-.4-.61-.61-.9h0c-.22-.31-.45-.61-.68-.9h0c-.24-.3-.49-.6-.74-.89h0c-.14-.2-.28-.4-.4-.61h0c-.11-.18-.21-.37-.31-.56h0a5.55,5.55,0,0,1-.24-.56h0a5.37,5.37,0,0,1-.21-.56h0c-.13-.41-.26-.83-.38-1.24h0c-.17-.54-.35-1.07-.54-1.6h0c-.07-.29-.14-.59-.2-.89h0c-.06-.3-.1-.6-.14-.91h0c0-.3-.06-.61-.08-.92h0c0-.2,0-.4,0-.61h0v-.32h0c0-.32,0-.63.06-1h0c0-.32.08-.65.14-1h0c.05-.33.12-.65.2-1h0c.08-.34.18-.67.28-1h0c.09-.16.18-.3.28-.45h0c.1-.14.2-.28.31-.41h0a3.8,3.8,0,0,1,.33-.37h0c.11-.12.23-.23.35-.34h0c.12-.11.25-.21.38-.31h0l.4-.28h0a7.72,7.72,0,0,1,.85-.47h0a4.94,4.94,0,0,1,.57-.26h0l.59-.23h0c.41-.14.82-.26,1.24-.38h0l1.29-.32h0l1.32-.3h0c.52-.11,1-.24,1.55-.37l4.77-1-.44-1.23-3.57-.49-.67-2h0l-1.56-.12h0a11.2,11.2,0,0,0-1.14-.17h0c-.32,0-.64,0-1,0h-.17a9.81,9.81,0,0,0-1.08.08h0a9.09,9.09,0,0,0-1,.2h0a8.88,8.88,0,0,0-1,.31h0a10.25,10.25,0,0,0-1,.41h0a10.36,10.36,0,0,0-.92.52h0c-.29.19-.58.39-.86.6h0c-.22.18-.43.35-.64.54h0c-.21.19-.41.39-.61.59h0q-.3.3-.57.63h0c-.19.22-.36.45-.53.68h0c-.18.23-.34.47-.5.72h0c-.16.24-.31.5-.45.75h0l-.41.79h0c-.13.27-.25.55-.37.82h0c-.11.29-.22.57-.32.85h0c-.1.29-.19.59-.27.88h0c-.08.3-.16.6-.22.9h0c-.07.3-.13.61-.18.91h0l-.12.93h0c0,.32,0,.63-.06.95h0c0,.22,0,.45,0,.67h0a2.53,2.53,0,0,0,0,.28h0c0,.32,0,.64,0,1h0l0,.86h0c0,.87.06,1.74.1,2.62l.12,3.14v.14h0l-.52-.13h0l-.33-.07h0l-.24,0h0a.05.05,0,0,1,0-.05h0s0-.07,0-.11h0c0-.12,0-.25-.07-.37h0c-.07-.41-.14-.83-.19-1.24h0c-.12-.79-.22-1.59-.32-2.39h0c-.09-.68-.17-1.37-.24-2h0c-.06-.6-.12-1.21-.17-1.81l-.15-1.68h0L198.1,123h0c-.06-.55-.12-1.09-.19-1.64h0c-.08-.59-.16-1.18-.26-1.77h0c-.11-.68-.22-1.35-.35-2h0c0-.33-.06-.66-.08-1h0c0-.3,0-.59,0-.89h0v-.1h0c0-.33,0-.66,0-1h0c0-.32,0-.65.08-1h0c0-.33.09-.65.14-1h0c.06-.32.12-.64.19-1h0q.1-.46.24-.93h0c.09-.31.18-.61.29-.91h0c.1-.3.21-.59.33-.88h0c.12-.29.24-.58.38-.86h0c.13-.27.27-.55.42-.81h0c.15-.27.31-.53.47-.78h0c.16-.25.33-.5.51-.74h0c.17-.24.36-.47.55-.69h0c.19-.22.38-.43.59-.64h0c.2-.2.41-.4.63-.59h0c.22-.19.45-.37.69-.55h0c.24-.17.48-.33.73-.48h0c.25-.15.51-.28.77-.41h0c.26-.12.53-.24.8-.34h0c.28-.09.56-.18.84-.25h0a8.55,8.55,0,0,1,.88-.17h0c.3,0,.6-.07.9-.09h.94l.74.07h0l.7.12h0c.22.05.45.1.67.17h0l.67.19h0l1.06.35h0l1.15.41h0c.52.11,1,.24,1.55.37h0l1.59.4h0l1.44.33h0c.49.1,1,.19,1.46.26h0c.48.08,1,.13,1.45.17h0l.72,0h.71c.23,0,.47,0,.7-.06h0c.23,0,.46-.06.69-.1h0q.34-.06.69-.15h0l.67-.22h0l.47-.13h0a3.12,3.12,0,0,0,.43-.15h0a3.2,3.2,0,0,0,.39-.16h0a2.21,2.21,0,0,0,.34-.18h0a2.83,2.83,0,0,0,.45-.32h0a2.6,2.6,0,0,0,.36-.38h0a2.52,2.52,0,0,0,.28-.44h0a3.24,3.24,0,0,0,.19-.52h0a5.6,5.6,0,0,0,.12-.59V101h0c0-.24,0-.49,0-.74h0c0-.25,0-.5.06-.75h0c0-.23.07-.47.11-.7h0c0-.22.09-.45.15-.67h0c.06-.22.12-.43.19-.64h0c.07-.22.15-.42.23-.63h0l.27-.62h0c.1-.21.21-.41.31-.62h0l.12-.22,5.8.49h0l-.81-1.21h0c-.21-.32-.41-.66-.6-1h0c-.17-.33-.34-.67-.48-1h0c-.14-.34-.27-.69-.38-1h0q-.15-.51-.27-1h0c-.07-.35-.13-.7-.17-1.06h0c0-.35-.06-.71-.07-1.06h0c0-.11,0-.21,0-.32h0c0-.25,0-.5,0-.75h0c0-.36.06-.71.11-1.07h0c0-.32.1-.64.16-1h0c.07-.32.15-.65.23-1h0c.09-.32.19-.64.29-1h0c.11-.32.23-.63.35-.94h0c.11-.28.22-.56.34-.84h0q.16-.39.36-.78h0c.11-.24.24-.47.37-.71h0c.13-.22.26-.44.4-.66h0c.13-.21.27-.41.42-.61h0l.45-.58h0c.16-.19.32-.37.49-.55h0l.52-.54h0l.56-.52h0c.24-.22.48-.43.73-.63h0l.81-.65h0c.6-.47,1.21-.94,1.83-1.4l.36-.29L248.48,79l25.4-29.28,2.45-.49.67-2.46,0,0h0c.22-.28.44-.56.67-.83h0l.39-.44h0l.14-.14h0l0,0h0s0,0,0,0h0l7.58,6.39m-65.4,54.44-.21,0h0c-.55,0-1.11-.12-1.66-.2h0c-.49-.07-1-.16-1.46-.26h0c-.45-.09-.89-.2-1.33-.31h0l-1.29-.36h0l-1.69-.51h0l-1.93-.55h0l-.39-.13h0a6.09,6.09,0,0,0-.61-.17h0a6.18,6.18,0,0,0-.62-.12h0c-.2,0-.41-.06-.61-.08h0l-.62,0h-.62c-.2,0-.41,0-.61.06h0c-.2,0-.4.06-.6.1h0a5.66,5.66,0,0,0-.59.15h0a5.08,5.08,0,0,0-.69.23h0c-.23.09-.45.19-.66.29h0c-.22.11-.43.23-.64.36h0a6.42,6.42,0,0,0-.6.42h0a6.57,6.57,0,0,0-.57.48h0a6.63,6.63,0,0,0-.52.54h0a7,7,0,0,0-.48.6h0a5.74,5.74,0,0,0-.43.66h0c-.23.41-.44.82-.63,1.25h0c-.19.41-.37.83-.52,1.25h0c-.15.42-.29.84-.41,1.27h0c-.12.42-.22.85-.31,1.28h0c-.08.42-.15.85-.21,1.28h0q-.08.65-.12,1.29h0c0,.44,0,.87,0,1.3v.09h0c0,.41,0,.81,0,1.22h0c0,.35,0,.7.07,1h0c0,.36.07.7.11,1h0c.09.71.19,1.41.32,2.11h0a.28.28,0,0,1,0-.09h0l0-.11h0l.12-.33h0c.11-.28.22-.57.34-.85L200,120h0c.11-.43.22-.85.35-1.28h0c.13-.41.27-.83.43-1.24h0c.15-.4.32-.8.5-1.19h0c.18-.39.37-.77.58-1.14h0c.21-.37.43-.72.67-1.07h0c.24-.34.5-.68.77-1h0c.1-.14.2-.28.32-.42h0a3.8,3.8,0,0,1,.33-.37h0a3.59,3.59,0,0,1,.36-.32h0l.37-.28h0c.13-.08.26-.16.4-.23h0a3.73,3.73,0,0,1,.4-.2h0a6.74,6.74,0,0,1,.86-.3h0q.34-.09.69-.15h0c.24-.05.48-.08.72-.11h0l.72-.08h0l.73-.06h0l1.11-.09h0c.36,0,.72-.08,1.08-.14l1.78-.14,3.38,1.28.68-1.81h.06l1.34.31h0l.74.19h0l.25.07h0l.08,0h0l0,0h0c0-.14,0-.28,0-.41h0c0-.24.05-.49.08-.73h0c0-.42.11-.84.16-1.26v-.06l.48-1.7m-1.06,8.1-.39-1.49.1-1.07-1.16.11h0l0,0h0a3.3,3.3,0,0,0-.29.41h0a2.16,2.16,0,0,0-.17.34h0a1.89,1.89,0,0,0-.1.41h0v.1h0a3.25,3.25,0,0,0,0,.44h0c0,.11,0,.23.07.35h0l.06.24h0a.35.35,0,0,1,0,.14h0s0,0,0,0h0s0,0,0,0h0l.07,0h0l.2,0h0l.34.07h0l.59-.07h0l.35-.07h0l.12,0h0l.07,0m9.08,12-.87-6.08v-7.81h0v0h0v-.17l.16-1.59.31-3.19-.43-2.47h0a2.2,2.2,0,0,1-.26.15h0l-.31.13h0c-.24.09-.48.17-.73.24h0l-.84.23h0l-.9.23h0l-.9.23h0l-.86.25h0c-.26.08-.51.17-.76.27h0l-.33.16h0l-.28.16,0,.33h0c-.1.62-.19,1.24-.26,1.87h0c-.06.64-.11,1.29-.13,1.93h0c0,.31,0,.62,0,.93v0h0c0,.33,0,.66,0,1h0c0,.33,0,.65.05,1h0c0,.33.06.66.1,1h0c0,.33.09.65.14,1h0q.08.48.18,1h0c.06.31.14.63.22.94h0c.08.32.17.63.26.93h0c.1.31.2.61.31.91h0c.11.29.23.59.36.88h0c.12.28.26.57.4.85h0q.21.41.45.81h0c.13.22.27.43.41.64h0l.44.61h0c.15.19.31.39.47.57h0c.17.19.34.37.52.55l.07,0h0c.5.3,1,.6,1.52.88h0q.45.25.9.48h0l.34.15h0l.12,0h0l.09,0h0l0,0m6.86-28.58-4.54-.21-.35.83h0c-.15.61-.27,1.23-.39,1.85h0q-.17.91-.3,1.83h0c-.08.59-.16,1.19-.22,1.79h0c-.06.59-.11,1.18-.16,1.77h0c0,.58-.07,1.17-.09,1.75h0c0,.59,0,1.17-.05,1.75h0v1.1h0v.65h0c0,.58,0,1.17,0,1.75h0q0,1.5.09,3l.12,3.06h0c0,1,.07,2.11.1,3.17h0c0,1.1,0,2.2,0,3.3l0,.45.87-1.18.5-1.4h0c.18-.82.34-1.64.5-2.46h0c.15-.83.29-1.66.42-2.5h0c.14-.83.26-1.67.39-2.5h0c.12-.84.24-1.68.35-2.52h0c.17-1.21.35-2.43.52-3.65h0c.18-1.21.37-2.42.58-3.63h0c.1-.6.21-1.2.32-1.8h0l.36-1.78h0c.13-.6.27-1.18.41-1.77h0c.14-.59.3-1.17.46-1.75h0c0-.16,0-.33,0-.49h0v0h0c0-.06,0-.13,0-.2h0s0-.06,0-.1h0l0-.07m9.17,11.2-1.13-.4-.57-.2-.28-.1-.14,0-.14-.06-2.18-1-1.84-.22h-1.67l-.69.25h0l-.37.16h0l-.12.07h0l0,0h0s0,0,0,0h0c0,.1,0,.21-.07.32h0c0,.21-.09.42-.14.63h0c-.09.38-.18.75-.26,1.13l0,0-.23,1.82-.11.92,0,.22h0l0,.23-.09.45-.68,3.47-.32,1.53h0c-.06.29-.11.57-.17.86h0l-.06.29h0a.69.69,0,0,1,0,.13h0l0,.39h0l-.09.79-.16,1.42v.06l1.37-1.9.68-1,.17-.23h0l.19-.23.38-.44.76-.89.38-.44h0c.13-.15.26-.29.4-.43l1.57-1.74,1.85-1.58h0l.46-.4.45-.4.91-.82,1.06-.64.58-.53h0l.12-.23h0l.08-.12h0l0,0h0l0,0h0s0,0,0,0h0a.11.11,0,0,0,0-.07h0a.69.69,0,0,0,0-.13h0c0-.13,0-.25,0-.37h0c0-.12,0-.25,0-.38h0a.59.59,0,0,1,0-.13h0l0-.08m-3.88-26.21-.22-2.71-1.12-2h0l-.05,0h0l-.08.05h0l-.22.19h0l-.6.58h0l-1,1.08,0,0-1.11,1.48-1.34,2.46L236,85.35l.89,2.46.86,1.09.44.54.21.27h0a1.71,1.71,0,0,0,.11.14l.1.14,1.63,2.25V86.58l.44-3.93m4.56,24.18h0a.14.14,0,0,0,0-.06h0l0-.12h0l-.12-.32h0l-.21-.54v0l0,0h0q-.26-.36-.51-.75h0c-.18-.27-.36-.54-.53-.81h0l0-.06h0a.41.41,0,0,0-.11-.07h0l-.15-.05h0a2.23,2.23,0,0,0-.36,0h-.59l-1.25-.1h0c-.13-.32-.25-.64-.39-1h0s0,0,0,0h0l-.05,0h0l-.15-.08h0l-.43-.16h0q-.37-.12-.75-.21h0v0h0l-.21-.6h0c0-.12-.08-.23-.11-.35h0a.5.5,0,0,1,0-.13h0a.15.15,0,0,1,0-.07h0s0,0,0-.06h0L239,101h0c0-.09-.11-.17-.17-.26h0l-.32-.42v0l-1.45-.11-.58.43-.49,2.24v0l-.05,1h0c0,.34,0,.69,0,1h0a.64.64,0,0,0,0,.24h0a.8.8,0,0,0,.23.29h0l.68.18h0l.43.09h0a1.55,1.55,0,0,0,.31,0h.16l.24,0h0l.57-.12.44-.1h0l.23,0h.06c.23,0,.47,0,.7,0h0l.44-.06h0l.19,0h0a.69.69,0,0,0,.15-.07h0a1,1,0,0,1,.28-.09h.13a1,1,0,0,1,.24,0h0l.21.07h0l.49.75,1,.53,2.13.21M248,87.07l-.66-4.42-2-4.43-1.78-2-2.23.25h0s0,0,0,.06h0a.36.36,0,0,0,0,.09h0l.12.27h0c.13.24.26.49.4.73h0c.24.42.48.84.73,1.25l0,.06V79h0q.26.92.48,1.83h0c0,.15.08.3.11.46h0l.06.3h0v.06h0v.08h0a2.34,2.34,0,0,1,0,.26h0c-.1.67-.21,1.34-.32,2l-.29,1.72v.1L242.46,91l.67,4.67,2.23,2.71V96.17l.67-2.7,1.56-3,.44-3.45m4.74,28h0c0-.15,0-.31,0-.46h0a2.49,2.49,0,0,0-.09-.37h0a2.44,2.44,0,0,0-.14-.34h0l-.14-.25h0a2,2,0,0,0-.17-.23h0a1.89,1.89,0,0,0-.2-.2h0a1.92,1.92,0,0,0-.22-.18h0a2,2,0,0,0-.25-.14h0l-.26-.1h0a1.53,1.53,0,0,0-.29-.07h0a1.55,1.55,0,0,0-.31,0h0l-.88,0h0l-.39,0h0l-.14,0h0l-.08,0h0l-.56-.34h0l-.5-.3h0a.2.2,0,0,1-.11-.09h0a.38.38,0,0,1-.06-.13h0s0-.07,0-.11h0s0-.08,0-.12h0l.06-.24.07-.21h0a1.24,1.24,0,0,0,0-.16h0a2,2,0,0,1,0-.25h0l0-.34h0c0-.12,0-.23,0-.34h0a2.09,2.09,0,0,0,0-.25h0a.41.41,0,0,0,0-.11h0a.94.94,0,0,0,0-.16h0c0-.13-.06-.26-.1-.38h0c0-.11-.06-.22-.1-.33h0c0-.06,0-.13,0-.19h0s0,0,0,0h0l-.07,0h0l-.12,0h0l-.34,0h0l-.59,0h0l-.06.1h0a1.14,1.14,0,0,0-.1.19h0l-.26.48h0c-.05.26-.12.51-.19.76h0c-.08.25-.16.49-.25.73h0q-.13.38-.27.72h0c-.1.24-.19.48-.28.72h0c-.1.25-.19.5-.28.76h0c-.08.25-.16.51-.23.77h0a7.08,7.08,0,0,0-.16.8h0a6,6,0,0,0-.07.84h0v.08h0a4.7,4.7,0,0,0,0,.53h0a4.31,4.31,0,0,0,.1.61h0a2.46,2.46,0,0,0,.09.29h0a2.15,2.15,0,0,0,.1.27h0a2,2,0,0,0,.14.25h0l.16.21h0l.19.16h0a1,1,0,0,0,.23.12h0a1.1,1.1,0,0,0,.26.06h.29l.7.11h0c.24,0,.48.06.72.08h0l.71,0h.72l.72,0h0l.72-.09h0c.24,0,.47-.08.71-.14h0q.36-.07.72-.18h0a1.27,1.27,0,0,0,.25-.22h0a1.85,1.85,0,0,0,.19-.27h0a3.09,3.09,0,0,0,.14-.32h0a2.47,2.47,0,0,0,.11-.36h0c0-.13.06-.26.08-.39h0a6.48,6.48,0,0,0,.07-.77h0v-.23m-1.25-4.18v0h0c-.07-.3-.14-.6-.2-.9h0l-.09-.5h0c0-.06,0-.12,0-.18h0v-.05h0l0,0h0v0h0a.17.17,0,0,0,0-.07h0c0-.07-.05-.15-.08-.23h0c-.09-.22-.18-.44-.29-.66h0c-.18-.4-.37-.79-.56-1.19l0,0-1.08-1.46-.54-.73-.07-.09h0l-.07-.09-.15-.17-.31-.34-1.22-1.34-.3-.34-.15-.17h0a.8.8,0,0,1-.15-.17l-.58-.7-1.14-1.41-.58-.71-.14-.17h0l-.14-.18-.26-.37-2.1-3-2.8-2.77-2-3-1.93-4.58h0l0,0h0l0,0h0a.59.59,0,0,0,0,.08h0l-.06.22h0q-.07.32-.12.63h0c-.06.37-.11.74-.16,1.11v.06l.3,1.24.08.3h0a.75.75,0,0,0,0,.16l0,.15.18.61.72,2.44,1.83,3.1.06.07h0c.47.51.93,1,1.38,1.55h0l.75.89h0a3.55,3.55,0,0,1,.23.31h0a.61.61,0,0,1,.07.1h0a.14.14,0,0,1,0,.06h0s0,0,0,0h0l0,0h0l.11.13h0c.12.14.25.28.38.41h0c.38.38.75.76,1.14,1.13h0l1,1h0l.32.33h0l.1.11h0l0,.06h0l.05.06h0l.09.1h0l.32.29h0l.95.83h0l1.12,1h0a4.68,4.68,0,0,1,.39.38h0l.12.13h0a.41.41,0,0,1,0,.09h0a.35.35,0,0,0,.05.08h0l.08.1h0l.28.3h0c.27.27.55.53.83.79h0c.49.45,1,.9,1.5,1.34l.06.06,0,0h0l.75,1.25h0l.44.69h0l.15.24h0l.07.11h0a.36.36,0,0,1,0,.09h0l0,.16h0l.06.48h0c0,.28.05.56.06.84v0l1.16-.1M277,124.19v-.09h0c0-.3,0-.6,0-.89h0c0-.3,0-.6-.06-.89h0c0-.3-.05-.59-.09-.88h0q0-.43-.12-.87l-.05-.41h-.87l0,.24h0c0,.53-.06,1-.12,1.58h0c-.05.52-.12,1-.2,1.55h0c-.09.51-.18,1-.29,1.52h0c-.11.49-.22,1-.35,1.48h0c-.13.48-.27,1-.41,1.44h0c-.15.46-.3.93-.46,1.39h0c-.16.44-.32.89-.49,1.33h0c-.16.42-.33.85-.51,1.27l-.34-1.13v-1.27h0l.19-.57h0c.13-.43.27-.87.4-1.31h0c.13-.45.25-.9.37-1.35h0c.11-.46.22-.92.32-1.38h0c.1-.47.19-.93.28-1.4h0c.08-.47.15-.94.2-1.42h0c.06-.47.1-.95.13-1.42h0c0-.48.05-.95.05-1.42h0c0-.47,0-1-.06-1.42h0c0-.24,0-.47-.07-.71h0c-.11-.59-.24-1.18-.38-1.77h0c-.15-.61-.32-1.21-.51-1.81h0c-.1-.3-.2-.6-.31-.9h0c-.11-.29-.23-.58-.35-.87h0c-.12-.28-.26-.56-.4-.83h0a8.78,8.78,0,0,0-.44-.79h0q-.17-.29-.36-.57h0l-.4-.51h0c-.14-.16-.28-.31-.43-.46h0c-.15-.14-.3-.28-.46-.41h0c-.15-.13-.32-.25-.48-.37h0c-.17-.11-.33-.22-.51-.32h0c-.17-.09-.34-.19-.52-.27h0l-.54-.23h0c-.26-.09-.51-.18-.78-.25h0c-.26-.07-.52-.12-.79-.17h0c-.94-.05-1.89-.1-2.83-.13h0c-.93,0-1.86-.06-2.8-.08h-2.8c-1,0-1.91,0-2.87.07h0a3.17,3.17,0,0,0-.53,0h0l-.25,0h0l-.22,0h0l-.28.11h0a1.24,1.24,0,0,0-.23.17h0a1.1,1.1,0,0,0-.2.23h0a2.59,2.59,0,0,0-.14.29h0a2.68,2.68,0,0,0-.07.27h0a1.63,1.63,0,0,0,0,.31v0h0c0,.17,0,.34,0,.51h0c0,.2,0,.4,0,.6h0c0,.21,0,.42,0,.63h0q0,.32.06.63h0a3.77,3.77,0,0,0,.14.58h0a2.77,2.77,0,0,0,.1.26h0l.13.23h0a1.13,1.13,0,0,0,.23.26h0l.57.47,1.36.11,1.06-.32,1.25-1.07,1.24-.12h0a4.54,4.54,0,0,1,.5-.12h0a3.89,3.89,0,0,1,.49,0h.11l.29,0h0a2.63,2.63,0,0,1,.39.06h0a2.54,2.54,0,0,1,.37.1h0l.35.16h0l.32.21h0a2.55,2.55,0,0,1,.3.26h0c.1.1.19.21.28.32h0a2.25,2.25,0,0,1,.24.36h0a4.66,4.66,0,0,1,.32.68h0c.15,0,.31.09.46.15h0l.54.17h0l.48.15h0l.48.12h0a3.4,3.4,0,0,0,.46.09h0l.32,0h.45a2.2,2.2,0,0,0,.36,0h0l.34-.08h0l.33-.11h0l.27-.14h0a1.75,1.75,0,0,0,.25-.16h0l.22-.19h0a2.09,2.09,0,0,0,.2-.22h0a2,2,0,0,0,.18-.25h0c0-.1.1-.19.14-.29h0a3,3,0,0,0,.11-.32h0c0-.11,0-.23.07-.35h0a4.41,4.41,0,0,0,0-.52h0v-.1h0a5.38,5.38,0,0,0-.07-.69h0l0-.26h0l-.06-.27h0c0-.13-.06-.25-.1-.37h0l0,0h0c.21.13.42.28.63.42h0l.35.25h0l.11.1h0l0,0h0v0h0a2.7,2.7,0,0,0,0,.28h0c.05.17.09.35.13.52h0a4.43,4.43,0,0,1,.06.51h0v.21h0a2.44,2.44,0,0,1,0,.27h0a3.78,3.78,0,0,1-.06.47h0a3.45,3.45,0,0,1-.12.43h0c-.05.14-.11.27-.17.41h0c-.07.12-.14.25-.22.37h0a3.92,3.92,0,0,1-.27.33h0a2.76,2.76,0,0,1-.3.29h0l-.34.25h0l-.38.2h0l-.4.14h0l-.42.1h0l-.47,0h-.49a4.19,4.19,0,0,1-.5,0l-.58,0h0a5.07,5.07,0,0,0-.55,0H265l-.43,0h0l-.23,0h0l-.2.07h0l-.1,0h0a.78.78,0,0,1,0,.14h0L264,115h0a3.59,3.59,0,0,1-.17.34h0l-.18.33h0a.5.5,0,0,0,0,.13h0a.19.19,0,0,0,0,.07h0s0,0,0,0h0l-.24,0h0l-.41,0h0l-1.12,0h-2l-.39-1.17-1.35-.21h0l-.28.23h0l-.18.13h0l-.06,0h0l0,0h0s0,0,0,0h0l0,0h0a1,1,0,0,0-.08.14h0c-.07.14-.14.27-.2.42h0c-.05.2-.1.41-.16.61h0c-.06.21-.13.41-.2.61h0c-.07.19-.15.39-.24.58h0c-.08.19-.18.37-.28.56h0a5.48,5.48,0,0,1-.31.52h0a5.6,5.6,0,0,1-.36.49h0a5.34,5.34,0,0,1-.39.44h0a5.22,5.22,0,0,1-.43.39h0l-.35.26h0l-.37.22h0l-.4.19h0l-.41.14h0c-.21,0-.42,0-.63,0h0c-.23,0-.45.05-.68.09h0c-.49.08-1,.18-1.45.28l-1.31.28h0l-.57.11h0l-.46.08-2.36.32v.75l3.28.85,1.43.41h0a6.63,6.63,0,0,0,.75.15h0c.22,0,.44,0,.65,0h0c.22,0,.45,0,.67,0h0l.67-.12h0c.23-.06.46-.11.69-.18h0l.72-.2h0l1.53-.42h0l1.27-.34h0l1-.29h0l1-.31h0a3.12,3.12,0,0,0,.43-.15h0a2.93,2.93,0,0,0,.4-.19h0l.36-.23h0l.35-.25h0l.64-.53h0l.32-.25h0l.33-.23h0a3.75,3.75,0,0,1,.44-.24h0a2.46,2.46,0,0,1,.48-.16h0a2.73,2.73,0,0,1,.5-.05h0a2.47,2.47,0,0,1,.6.08h0l.18.05,1.26,0,.87.21.29-1.17-.29-1.6-.58-1,.58-.64h0l.54.06h0l.5,0h0v0h0l0,0h0l.09.22h0c.08.22.16.44.23.66h0c.13.41.26.82.38,1.23l0,0,.08,1.14h0c0,.23,0,.46.05.69h0c0,.22,0,.45.07.67h0c.07.43.15.87.25,1.29h0c.1.43.21.85.34,1.26h0c.13.41.26.82.41,1.23h0c.05.15.11.29.16.44h0c.12.23.23.48.33.72h0q.15.39.27.78h0c.08.28.15.55.21.83h0c.06.28.12.57.17.85h0c.05.29.09.59.13.88h0l.09.89h0c0,.6.09,1.19.11,1.79h0l.06,1.61h0c0,.49,0,1,0,1.49h0c0,.44,0,.87.07,1.31h0c0,.19,0,.38.07.57h0a4.54,4.54,0,0,0,.09.51h0c.28-.2.56-.42.83-.64h0c.26-.23.52-.47.76-.72h0q.36-.37.69-.78h0c.22-.28.42-.56.61-.85h0q.24-.36.45-.72h0c.14-.25.27-.5.4-.76h0c.13-.25.25-.52.36-.78h0c.11-.27.22-.54.31-.81h0c.1-.28.19-.55.28-.83h0c.09-.29.16-.57.24-.86h0c.07-.28.13-.57.19-.86h0c.06-.3.12-.59.16-.89h0c.05-.29.09-.59.12-.89h0q.06-.45.09-.9h0c0-.3,0-.6,0-.9h0c0-.27,0-.54,0-.81"/><path class="cls-1" d="M289,31.06V51.45l-.38.45L287,51.41l.9-1.23V46.73h0a.89.89,0,0,0,0-.14h0a1.19,1.19,0,0,0-.08-.16h0l-.13-.18h0c-.05-.07-.11-.13-.17-.2h0a4.78,4.78,0,0,0-.45-.45h0l-.58-.5h0l-.69-.54h0l-.74-.55h0c-.53-.38-1.05-.76-1.58-1.12l-1-.72h0l-.91-.63h0l-.7-.5h0l-.24-.19h0l-.17-.15h0l-.06-.07h0a0,0,0,0,1,0,0h0v0L289,31.06"/><path class="cls-1" d="M251.33,45l-.32.71h0q-53.08,1.05-106,5.54h0Q92.65,55.67,40.67,63.53L30,60.1h0q50.4-7.16,101.2-10.92h0Q188,45,245,45h6.32"/></svg>